<?xml version="1.0" encoding="utf-8"?>
<!-- Generator: Adobe Illustrator 27.3.1, SVG Export Plug-In . SVG Version: 6.00 Build 0)  -->
<svg version="1.1" id="Design" xmlns="http://www.w3.org/2000/svg" xmlns:xlink="http://www.w3.org/1999/xlink" x="0px" y="0px"
	 viewBox="0 0 800 800" style="enable-background:new 0 0 800 800;" xml:space="preserve">
<style type="text/css">
	.st0{fill:#D4D4D4;}
</style>
<g>
	<g>
		<g>
			<path class="st0" d="M439.4,385.2c-26.9,0-26.9,26.8-26.9,26.9c0,0-1.8,26.8,26.9,26.8c0,0,21.6,1.2,23.8-15.8
				c0.2-1.5-1-2.8-2.5-2.8h-7.5c-1.1,0-2.1,0.7-2.4,1.7c-0.7,2.2-3,5.8-11,5.8c0,0-10.4,0.7-12.1-9.3c-0.3-1.5,1-2.9,2.5-2.9h31.2
				c1.3,0,2.5-1.1,2.5-2.4C464.2,406.1,462.9,385.2,439.4,385.2z M429.2,406.3c-1,0-1.7-1-1.4-1.9c1-3.1,3.9-8.9,11.8-8.9
				c8.2,0,10.1,6.1,10.5,9.1c0.1,0.9-0.6,1.7-1.5,1.7L429.2,406.3L429.2,406.3z M397,400c-0.9-0.3-1-1.5-0.2-1.9
				c3-1.5,6.5-4.8,6.5-12.1c0-12.5-8.7-18.7-19.8-18.7h-34.6c-1,0-1.8,0.8-1.8,1.8v66.4c0,1,0.8,1.8,1.8,1.8h34.6
				c0,0,22.3,0.7,22.3-20.7C405.8,416.8,406.5,403.2,397,400z M363.1,381.2c0-0.7,0.6-1.3,1.3-1.3h19.1c0,0,4.9,0,4.9,7.3
				s-2.9,8.4-6.2,8.4h-17.8c-0.7,0-1.3-0.6-1.3-1.3V381.2z M382.5,425h-18c-0.7,0-1.3-0.6-1.3-1.3v-16.1c0-0.7,0.6-1.3,1.3-1.3h19.1
				c0,0,7.4-0.1,7.4,9.6C390.9,424.1,385.4,424.9,382.5,425z M424.3,370.2v6c0,0.7,0.6,1.3,1.3,1.3h26.3c0.7,0,1.3-0.6,1.3-1.3v-6
				c0-0.7-0.6-1.3-1.3-1.3h-26.3C424.9,368.9,424.3,369.5,424.3,370.2z"/>
		</g>
	</g>
</g>
</svg>
