<?xml version="1.0" encoding="utf-8"?>
<!-- Generator: Adobe Illustrator 27.3.1, SVG Export Plug-In . SVG Version: 6.00 Build 0)  -->
<svg version="1.1" id="Design" xmlns="http://www.w3.org/2000/svg" xmlns:xlink="http://www.w3.org/1999/xlink" x="0px" y="0px"
	 viewBox="0 0 121.8 73.8" style="enable-background:new 0 0 121.8 73.8;" xml:space="preserve">
<style type="text/css">
	.st0{fill:#333033;}
</style>
<g>
	<g>
		<path class="st0" d="M95.3,20.1c-26.9,0-26.9,26.8-26.9,26.9c0,0-1.8,26.8,26.9,26.8c0,0,21.6,1.2,23.8-15.8
			c0.2-1.5-1-2.8-2.5-2.8h-7.5c-1.1,0-2.1,0.7-2.4,1.7c-0.7,2.2-3,5.8-11,5.8c0,0-10.4,0.7-12.1-9.3c-0.3-1.5,1-2.9,2.5-2.9h31.2
			c1.3,0,2.5-1.1,2.5-2.4C120.1,41,118.8,20.1,95.3,20.1z M85.1,41.2c-1,0-1.7-1-1.4-1.9c1-3.1,3.9-8.9,11.8-8.9
			c8.2,0,10.1,6.1,10.5,9.1c0.1,0.9-0.6,1.7-1.5,1.7L85.1,41.2L85.1,41.2z M52.9,34.9c-0.9-0.3-1-1.5-0.2-1.9
			c3-1.5,6.5-4.8,6.5-12.1c0-12.5-8.7-18.7-19.8-18.7H4.8C3.8,2.2,3,3,3,4v66.4c0,1,0.8,1.8,1.8,1.8h34.6c0,0,22.3,0.7,22.3-20.7
			C61.7,51.7,62.4,38.1,52.9,34.9z M19,16.1c0-0.7,0.6-1.3,1.3-1.3h19.1c0,0,4.9,0,4.9,7.3s-2.9,8.4-6.2,8.4H20.3
			c-0.7,0-1.3-0.6-1.3-1.3V16.1z M38.4,59.9h-18c-0.7,0-1.3-0.6-1.3-1.3V42.5c0-0.7,0.6-1.3,1.3-1.3h19.1c0,0,7.4-0.1,7.4,9.6
			C46.8,59,41.3,59.8,38.4,59.9z M80.2,5.1v6c0,0.7,0.6,1.3,1.3,1.3h26.3c0.7,0,1.3-0.6,1.3-1.3v-6c0-0.7-0.6-1.3-1.3-1.3H81.5
			C80.8,3.8,80.2,4.4,80.2,5.1z"/>
	</g>
</g>
</svg>
