<?xml version="1.0" encoding="utf-8"?>
<!-- Generator: Adobe Illustrator 27.3.1, SVG Export Plug-In . SVG Version: 6.00 Build 0)  -->
<svg version="1.1" id="Design" xmlns="http://www.w3.org/2000/svg" xmlns:xlink="http://www.w3.org/1999/xlink" x="0px" y="0px"
	 viewBox="0 0 800 800" style="enable-background:new 0 0 800 800;" xml:space="preserve">
<style type="text/css">
	.st0{fill:#333033;}
</style>
<g>
	<g>
		<g>
			<path class="st0" d="M556.7,475.7c-54.2,0-98.3-44.1-98.3-98.3c0-54.2,44.1-98.3,98.3-98.3c54.2,0,98.3,44.1,98.3,98.3
				C655,431.6,610.9,475.7,556.7,475.7z M556.7,289.7c-48.4,0-87.7,39.4-87.7,87.7c0,48.4,39.4,87.7,87.7,87.7
				c48.4,0,87.7-39.4,87.7-87.7C644.4,329,605.1,289.7,556.7,289.7z"/>
		</g>
	</g>
	<g>
		<g>
			<path class="st0" d="M594,361.2c-26.9,0-26.9,26.8-26.9,26.9c0,0-1.8,26.8,26.9,26.8c0,0,21.6,1.2,23.8-15.8
				c0.2-1.5-1-2.8-2.5-2.8h-7.5c-1.1,0-2.1,0.7-2.4,1.7c-0.7,2.2-3,5.8-11,5.8c0,0-10.4,0.7-12.1-9.3c-0.3-1.5,1-2.9,2.5-2.9h31.2
				c1.3,0,2.5-1.1,2.5-2.4C618.8,382.1,617.5,361.2,594,361.2z M583.8,382.3c-1,0-1.7-1-1.4-1.9c1-3.1,3.9-8.9,11.8-8.9
				c8.2,0,10.1,6.1,10.5,9.1c0.1,0.9-0.6,1.7-1.5,1.7H583.8z M551.6,376c-0.9-0.3-1-1.5-0.2-1.9c3-1.5,6.5-4.8,6.5-12.1
				c0-12.5-8.7-18.7-19.8-18.7h-34.6c-1,0-1.8,0.8-1.8,1.8v66.4c0,1,0.8,1.8,1.8,1.8h34.6c0,0,22.3,0.7,22.3-20.7
				C560.4,392.8,561.1,379.2,551.6,376z M517.7,357.2c0-0.7,0.6-1.3,1.3-1.3h19.1c0,0,4.9,0,4.9,7.3c0,7.3-2.9,8.4-6.2,8.4H519
				c-0.7,0-1.3-0.6-1.3-1.3V357.2z M537.1,401h-18c-0.7,0-1.3-0.6-1.3-1.3v-16.1c0-0.7,0.6-1.3,1.3-1.3h19.1c0,0,7.4-0.1,7.4,9.6
				C545.5,400.1,540,400.9,537.1,401z M578.9,346.2v6c0,0.7,0.6,1.3,1.3,1.3h26.3c0.7,0,1.3-0.6,1.3-1.3v-6c0-0.7-0.6-1.3-1.3-1.3
				h-26.3C579.5,344.9,578.9,345.5,578.9,346.2z"/>
		</g>
	</g>
</g>
</svg>
