<?xml version="1.0" encoding="utf-8"?>
<!-- Generator: Adobe Illustrator 27.3.1, SVG Export Plug-In . SVG Version: 6.00 Build 0)  -->
<svg version="1.1" id="Design" xmlns="http://www.w3.org/2000/svg" xmlns:xlink="http://www.w3.org/1999/xlink" x="0px" y="0px"
	 viewBox="0 0 137.2 82.3" style="enable-background:new 0 0 137.2 82.3;" xml:space="preserve">
<style type="text/css">
	.st0{fill:#D4D4D4;}
</style>
<g>
	<g>
		<g>
			<path class="st0" d="M101.6,25.2c-26.9,0-26.9,26.8-26.9,26.9c0,0-1.8,26.8,26.9,26.8c0,0,21.6,1.2,23.8-15.8
				c0.2-1.5-1-2.8-2.5-2.8h-7.5c-1.1,0-2.1,0.7-2.4,1.7c-0.7,2.2-3,5.8-11,5.8c0,0-10.4,0.7-12.1-9.3c-0.3-1.5,1-2.9,2.5-2.9h31.2
				c1.3,0,2.5-1.1,2.5-2.4C126.4,46.1,125.1,25.2,101.6,25.2z M91.4,46.3c-1,0-1.7-1-1.4-1.9c1-3.1,3.9-8.9,11.8-8.9
				c8.2,0,10.1,6.1,10.5,9.1c0.1,0.9-0.6,1.7-1.5,1.7L91.4,46.3L91.4,46.3z M59.2,40c-0.9-0.3-1-1.5-0.2-1.9c3-1.5,6.5-4.8,6.5-12.1
				c0-12.5-8.7-18.7-19.8-18.7H11.1c-1,0-1.8,0.8-1.8,1.8v66.4c0,1,0.8,1.8,1.8,1.8h34.6c0,0,22.3,0.7,22.3-20.7
				C68,56.8,68.7,43.2,59.2,40z M25.3,21.2c0-0.7,0.6-1.3,1.3-1.3h19.1c0,0,4.9,0,4.9,7.3s-2.9,8.4-6.2,8.4H26.6
				c-0.7,0-1.3-0.6-1.3-1.3V21.2z M44.7,65h-18c-0.7,0-1.3-0.6-1.3-1.3V47.6c0-0.7,0.6-1.3,1.3-1.3h19.1c0,0,7.4-0.1,7.4,9.6
				C53.1,64.1,47.6,64.9,44.7,65z M86.5,10.2v6c0,0.7,0.6,1.3,1.3,1.3h26.3c0.7,0,1.3-0.6,1.3-1.3v-6c0-0.7-0.6-1.3-1.3-1.3H87.8
				C87.1,8.9,86.5,9.5,86.5,10.2z"/>
		</g>
	</g>
</g>
</svg>
