<?xml version="1.0" encoding="utf-8"?>
<!-- Generator: Adobe Illustrator 27.3.1, SVG Export Plug-In . SVG Version: 6.00 Build 0)  -->
<svg version="1.1" id="Design" xmlns="http://www.w3.org/2000/svg" xmlns:xlink="http://www.w3.org/1999/xlink" x="0px" y="0px"
	 viewBox="0 0 68.3 68.3" style="enable-background:new 0 0 68.3 68.3;" xml:space="preserve">
<style type="text/css">
	.st0{fill:#B3B3B3;}
</style>
<g>
	<g>
		<g>
			<path class="st0" d="M47.1,30.4c-10.3,0-10.3,10.3-10.3,10.3S36.1,51,47.1,51c0,0,8.3,0.5,9.1-6.1c0.1-0.6-0.4-1.1-1-1.1h-2.9
				c-0.4,0-0.8,0.3-0.9,0.7c-0.3,0.8-1.2,2.2-4.2,2.2c0,0-4,0.3-4.6-3.6c-0.1-0.6,0.4-1.1,1-1.1h12c0.5,0,1-0.4,1-0.9
				C56.6,38.4,56.2,30.4,47.1,30.4z M43.2,38.5c-0.4,0-0.7-0.4-0.5-0.7c0.4-1.2,1.5-3.4,4.5-3.4c3.1,0,3.9,2.3,4,3.5
				c0,0.3-0.2,0.7-0.6,0.7L43.2,38.5L43.2,38.5z M30.9,36.1c-0.3-0.1-0.4-0.6-0.1-0.7c1.2-0.6,2.5-1.8,2.5-4.6
				c0-4.8-3.3-7.2-7.6-7.2H12.4c-0.4,0-0.7,0.3-0.7,0.7v25.5c0,0.4,0.3,0.7,0.7,0.7h13.3c0,0,8.5,0.3,8.5-8
				C34.2,42.6,34.5,37.3,30.9,36.1z M17.9,28.9c0-0.3,0.2-0.5,0.5-0.5h7.3c0,0,1.9,0,1.9,2.8s-1.1,3.2-2.4,3.2h-6.8
				c-0.3,0-0.5-0.2-0.5-0.5C17.9,33.9,17.9,28.9,17.9,28.9z M25.3,45.7h-6.9c-0.3,0-0.5-0.2-0.5-0.5V39c0-0.3,0.2-0.5,0.5-0.5h7.3
				c0,0,2.8,0,2.8,3.7C28.5,45.3,26.4,45.7,25.3,45.7z M41.3,24.7V27c0,0.3,0.2,0.5,0.5,0.5h10.1c0.3,0,0.5-0.2,0.5-0.5v-2.3
				c0-0.3-0.2-0.5-0.5-0.5H41.8C41.6,24.2,41.3,24.4,41.3,24.7z"/>
		</g>
	</g>
</g>
</svg>
