<?xml version="1.0" encoding="utf-8"?>
<!-- Generator: Adobe Illustrator 27.3.1, SVG Export Plug-In . SVG Version: 6.00 Build 0)  -->
<svg version="1.1" id="Design" xmlns="http://www.w3.org/2000/svg" xmlns:xlink="http://www.w3.org/1999/xlink" x="0px" y="0px"
	 viewBox="0 0 68.3 68.3" style="enable-background:new 0 0 68.3 68.3;" xml:space="preserve">
<style type="text/css">
	.st0{fill:#B3B3B3;stroke:#F5F5F5;stroke-width:0.75;stroke-miterlimit:10;}
</style>
<g>
	<g>
		<g>
			<path class="st0" d="M51.9,37v10.3c0,0.2-0.2,0.4-0.4,0.4h-5.4c-0.2,0-0.4-0.2-0.4-0.4v-9.7c0-2.6-0.9-4.3-3.1-4.3
				c-1.7,0-2.8,1.1-3.3,2.2c-0.2,0.4-0.2,1-0.2,1.6v10.1c0,0.2-0.2,0.4-0.4,0.4h-5.3c-0.2,0-0.4-0.2-0.4-0.4c0-2.6,0.1-15,0-18
				c0-0.2,0.2-0.4,0.4-0.4h5.3c0.2,0,0.4,0.2,0.4,0.4v2.2c0,0,0,0,0,0.1l0,0v-0.1c0.9-1.2,2.4-3.1,5.6-3.1
				C48.9,28.5,51.9,31.2,51.9,37L51.9,37z M23.5,47.8h5.3c0.2,0,0.4-0.2,0.4-0.4v-18c0-0.2-0.2-0.4-0.4-0.4h-5.3
				c-0.2,0-0.4,0.2-0.4,0.4v18C23,47.6,23.3,47.8,23.5,47.8z"/>
		</g>
	</g>
	<g>
		<ellipse class="st0" cx="26" cy="23.2" rx="3.4" ry="3.4"/>
	</g>
</g>
</svg>
