<?xml version="1.0" encoding="utf-8"?>
<!-- Generator: Adobe Illustrator 27.3.1, SVG Export Plug-In . SVG Version: 6.00 Build 0)  -->
<svg version="1.1" id="Design" xmlns="http://www.w3.org/2000/svg" xmlns:xlink="http://www.w3.org/1999/xlink" x="0px" y="0px"
	 viewBox="0 0 193.1 193.1" style="enable-background:new 0 0 193.1 193.1;" xml:space="preserve">
<style type="text/css">
	.st0{fill:#B3B3B3;stroke:#F5F5F5;stroke-width:2;stroke-miterlimit:10;}
</style>
<g>
	<g>
		<g>
			<path class="st0" d="M153.2,108v36.7c0,0.9-0.7,1.6-1.6,1.6h-19c-0.9,0-1.6-0.7-1.6-1.6v-34.1c0-9-3.2-15.1-11.3-15.1
				c-6.1,0-9.8,4.1-11.4,8.1c-0.6,1.4-0.7,3.4-0.7,5.4v35.7c0,0.9-0.7,1.6-1.6,1.6H87.1c-0.9,0-1.6-0.7-1.6-1.6
				c0-9.1,0.2-53.2,0-63.6c0-0.9,0.7-1.7,1.6-1.7H106c0.9,0,1.6,0.7,1.6,1.6v7.8c0,0.1-0.1,0.1-0.1,0.2h0.1v-0.2c3-4.5,8.2-11,20-11
				C142.3,78,153.2,87.5,153.2,108L153.2,108z M52.5,146.3h18.9c0.9,0,1.6-0.7,1.6-1.6V81.1c0-0.9-0.7-1.6-1.6-1.6H52.5
				c-0.9,0-1.6,0.7-1.6,1.6v63.6C50.8,145.6,51.6,146.3,52.5,146.3z"/>
		</g>
	</g>
	<g>
		<ellipse class="st0" cx="61.3" cy="59.1" rx="11.9" ry="11.9"/>
	</g>
</g>
</svg>
