<?xml version="1.0" encoding="utf-8"?>
<!-- Generator: Adobe Illustrator 27.3.1, SVG Export Plug-In . SVG Version: 6.00 Build 0)  -->
<svg version="1.1" id="Design" xmlns="http://www.w3.org/2000/svg" xmlns:xlink="http://www.w3.org/1999/xlink" x="0px" y="0px"
	 viewBox="0 0 800 800" style="enable-background:new 0 0 800 800;" xml:space="preserve">
<style type="text/css">
	.st0{fill:#999999;}
</style>
<g>
	<g>
		<g>
			<path class="st0" d="M457.7,395.8v36.7c0,0.9-0.7,1.6-1.6,1.6h-19c-0.9,0-1.6-0.7-1.6-1.6v-34.1c0-9-3.2-15.1-11.3-15.1
				c-6.1,0-9.8,4.1-11.4,8.1c-0.6,1.4-0.7,3.4-0.7,5.4v35.7c0,0.9-0.7,1.6-1.6,1.6h-18.9c-0.9,0-1.6-0.7-1.6-1.6
				c0-9.1,0.2-53.2,0-63.6c0-0.9,0.7-1.7,1.6-1.7h18.9c0.9,0,1.6,0.7,1.6,1.6v7.8c0,0.1-0.1,0.1-0.1,0.2h0.1v-0.2
				c3-4.5,8.2-11,20-11C446.8,365.8,457.7,375.3,457.7,395.8L457.7,395.8z M357,434.1h18.9c0.9,0,1.6-0.7,1.6-1.6v-63.6
				c0-0.9-0.7-1.6-1.6-1.6H357c-0.9,0-1.6,0.7-1.6,1.6v63.6C355.3,433.4,356.1,434.1,357,434.1z"/>
		</g>
	</g>
	<g>
		<ellipse class="st0" cx="365.8" cy="346.9" rx="11.9" ry="11.9"/>
	</g>
</g>
</svg>
