<?xml version="1.0" encoding="utf-8"?>
<!-- Generator: Adobe Illustrator 27.3.1, SVG Export Plug-In . SVG Version: 6.00 Build 0)  -->
<svg version="1.1" id="Design" xmlns="http://www.w3.org/2000/svg" xmlns:xlink="http://www.w3.org/1999/xlink" x="0px" y="0px"
	 viewBox="0 0 800 720.8" style="enable-background:new 0 0 800 720.8;" xml:space="preserve">
<style type="text/css">
	.st0{fill:#999999;}
</style>
<g>
	<g>
		<path class="st0" d="M451.7,331.7v36.7c0,0.9-0.7,1.6-1.6,1.6h-19c-0.9,0-1.6-0.7-1.6-1.6v-34.1c0-9-3.2-15.1-11.3-15.1
			c-6.1,0-9.8,4.1-11.4,8.1c-0.6,1.4-0.7,3.4-0.7,5.4v35.7c0,0.9-0.7,1.6-1.6,1.6h-18.9c-0.9,0-1.6-0.7-1.6-1.6
			c0-9.1,0.2-53.2,0-63.6c0-0.9,0.7-1.7,1.6-1.7h18.9c0.9,0,1.6,0.7,1.6,1.6v7.8c0,0.1-0.1,0.1-0.1,0.2h0.1v-0.2c3-4.5,8.2-11,20-11
			C440.8,301.6,451.7,311.2,451.7,331.7L451.7,331.7z M351,370h18.9c0.9,0,1.6-0.7,1.6-1.6v-63.6c0-0.9-0.7-1.6-1.6-1.6H351
			c-0.9,0-1.6,0.7-1.6,1.6v63.6C349.3,369.3,350.1,370,351,370z"/>
	</g>
</g>
<g>
	<ellipse class="st0" cx="359.8" cy="282.8" rx="11.9" ry="11.9"/>
</g>
</svg>
