<?xml version="1.0" encoding="utf-8"?>
<!-- Generator: Adobe Illustrator 27.3.1, SVG Export Plug-In . SVG Version: 6.00 Build 0)  -->
<svg version="1.1" id="Design" xmlns="http://www.w3.org/2000/svg" xmlns:xlink="http://www.w3.org/1999/xlink" x="0px" y="0px"
	 viewBox="0 0 800 800" style="enable-background:new 0 0 800 800;" xml:space="preserve">
<style type="text/css">
	.st0{fill:#333033;}
</style>
<g>
	<g>
		<g>
			<path class="st0" d="M431.2,487.7c-54.2,0-98.3-44.1-98.3-98.3c0-54.2,44.1-98.3,98.3-98.3c54.2,0,98.3,44.1,98.3,98.3
				C529.5,443.6,485.4,487.7,431.2,487.7z M431.2,301.7c-48.4,0-87.7,39.4-87.7,87.7c0,48.4,39.4,87.7,87.7,87.7
				c48.4,0,87.7-39.4,87.7-87.7C518.9,341,479.5,301.7,431.2,301.7z"/>
		</g>
		<g>
			<g>
				<path class="st0" d="M486.7,396.9v36.7c0,0.9-0.7,1.6-1.6,1.6h-19c-0.9,0-1.6-0.7-1.6-1.6v-34.1c0-9-3.2-15.1-11.3-15.1
					c-6.1,0-9.8,4.1-11.4,8.1c-0.6,1.4-0.7,3.4-0.7,5.4v35.7c0,0.9-0.7,1.6-1.6,1.6h-18.9c-0.9,0-1.6-0.7-1.6-1.6
					c0-9.1,0.2-53.2,0-63.6c0-0.9,0.7-1.7,1.6-1.7h18.9c0.9,0,1.6,0.7,1.6,1.6v7.8c0,0.1-0.1,0.1-0.1,0.2h0.1v-0.2
					c3-4.5,8.2-11,20-11C475.8,366.8,486.7,376.4,486.7,396.9L486.7,396.9z M386,435.2h18.9c0.9,0,1.6-0.7,1.6-1.6V370
					c0-0.9-0.7-1.6-1.6-1.6H386c-0.9,0-1.6,0.7-1.6,1.6v63.6C384.3,434.5,385.1,435.2,386,435.2z"/>
			</g>
		</g>
	</g>
	<g>
		
			<ellipse transform="matrix(0.2298 -0.9732 0.9732 0.2298 -34.5566 652.2492)" class="st0" cx="394.8" cy="348" rx="11.9" ry="11.9"/>
	</g>
</g>
</svg>
