<?xml version="1.0" encoding="utf-8"?>
<!-- Generator: Adobe Illustrator 27.3.1, SVG Export Plug-In . SVG Version: 6.00 Build 0)  -->
<svg version="1.1" id="Design" xmlns="http://www.w3.org/2000/svg" xmlns:xlink="http://www.w3.org/1999/xlink" x="0px" y="0px"
	 viewBox="0 0 119.8 112.7" style="enable-background:new 0 0 119.8 112.7;" xml:space="preserve">
<style type="text/css">
	.st0{fill:#D4D4D4;stroke:#F5F5F5;stroke-width:2;stroke-miterlimit:10;}
</style>
<g>
	<g>
		<g>
			<path class="st0" d="M116.6,67.8v36.7c0,0.9-0.7,1.6-1.6,1.6H96c-0.9,0-1.6-0.7-1.6-1.6V70.4c0-9-3.2-15.1-11.3-15.1
				c-6.1,0-9.8,4.1-11.4,8.1c-0.6,1.4-0.7,3.4-0.7,5.4v35.7c0,0.9-0.7,1.6-1.6,1.6H50.5c-0.9,0-1.6-0.7-1.6-1.6
				c0-9.1,0.2-53.2,0-63.6c0-0.9,0.7-1.7,1.6-1.7h18.9c0.9,0,1.6,0.7,1.6,1.6v7.8c0,0.1-0.1,0.1-0.1,0.2H71v-0.2c3-4.5,8.2-11,20-11
				C105.7,37.8,116.6,47.3,116.6,67.8L116.6,67.8z M15.9,106.1h18.9c0.9,0,1.6-0.7,1.6-1.6V40.9c0-0.9-0.7-1.6-1.6-1.6H15.9
				c-0.9,0-1.6,0.7-1.6,1.6v63.6C14.2,105.4,15,106.1,15.9,106.1z"/>
		</g>
	</g>
	<g>
		<ellipse class="st0" cx="24.7" cy="18.9" rx="11.9" ry="11.9"/>
	</g>
</g>
</svg>
