<?xml version="1.0" encoding="utf-8"?>
<!-- Generator: Adobe Illustrator 27.3.1, SVG Export Plug-In . SVG Version: 6.00 Build 0)  -->
<svg version="1.1" id="Design" xmlns="http://www.w3.org/2000/svg" xmlns:xlink="http://www.w3.org/1999/xlink" x="0px" y="0px"
	 viewBox="0 0 68.3 68.3" style="enable-background:new 0 0 68.3 68.3;" xml:space="preserve">
<style type="text/css">
	.st0{fill:#B3B3B3;stroke:#F5F5F5;stroke-width:0.75;stroke-miterlimit:10;}
</style>
<g>
	<g>
		<g>
			<path class="st0" d="M55.5,36.9v14c0,0.2-0.2,0.6-0.6,0.6h-7.3c-0.2,0-0.6-0.2-0.6-0.6V37.7c0-3.6-1.2-5.8-4.2-5.8
				c-2.4,0-3.7,1.5-4.5,3C38,35.5,38,36.2,38,37.1v13.7c0,0.2-0.2,0.6-0.6,0.6h-7.2c-0.2,0-0.6-0.2-0.6-0.6c0-3.6,0.1-20.3,0-24.4
				c0-0.2,0.2-0.6,0.6-0.6h7.2c0.2,0,0.6,0.2,0.6,0.6v3c0,0,0,0,0,0.1l0,0v-0.1c1.2-1.6,3.3-4.2,7.6-4.2
				C51.4,25.3,55.5,29,55.5,36.9L55.5,36.9z M17,51.5h7.2c0.2,0,0.6-0.2,0.6-0.6V26.5c0-0.2-0.2-0.6-0.6-0.6H17
				c-0.2,0-0.6,0.2-0.6,0.6V51C16.2,51.2,16.7,51.5,17,51.5z"/>
		</g>
	</g>
	<g>
		<ellipse class="st0" cx="20.4" cy="18.2" rx="4.6" ry="4.6"/>
	</g>
</g>
</svg>
