<?xml version="1.0" encoding="utf-8"?>
<!-- Generator: Adobe Illustrator 27.3.1, SVG Export Plug-In . SVG Version: 6.00 Build 0)  -->
<svg version="1.1" id="Design" xmlns="http://www.w3.org/2000/svg" xmlns:xlink="http://www.w3.org/1999/xlink" x="0px" y="0px"
	 viewBox="0 0 68.3 68.3" style="enable-background:new 0 0 68.3 68.3;" xml:space="preserve">
<style type="text/css">
	.st0{fill:#B3B3B3;stroke:#F5F5F5;stroke-width:0.75;stroke-miterlimit:10;}
</style>
<g>
	<g>
		<g>
			<path class="st0" d="M54.1,36.1v13.5c0,0.2-0.2,0.6-0.6,0.6h-7c-0.2,0-0.6-0.2-0.6-0.6V36.8c0-3.5-1.2-5.6-4-5.6
				c-2.3,0-3.6,1.4-4.3,2.9c-0.3,0.6-0.3,1.3-0.3,2.1v13.2c0,0.2-0.2,0.6-0.6,0.6h-6.9c-0.2,0-0.6-0.2-0.6-0.6
				c0-3.5,0.1-19.6,0-23.5c0-0.2,0.2-0.6,0.6-0.6h6.9c0.2,0,0.6,0.2,0.6,0.6v2.9c0,0,0,0,0,0.1l0,0v-0.1c1.2-1.5,3.2-4,7.3-4
				C50.1,24.9,54.1,28.4,54.1,36.1L54.1,36.1z M17,50.1h6.9c0.2,0,0.6-0.2,0.6-0.6V26c0-0.2-0.2-0.6-0.6-0.6H17
				c-0.2,0-0.6,0.2-0.6,0.6v23.6C16.2,49.8,16.7,50.1,17,50.1z"/>
		</g>
	</g>
	<g>
		<ellipse class="st0" cx="20.2" cy="18" rx="4.4" ry="4.4"/>
	</g>
</g>
</svg>
