<?xml version="1.0" encoding="utf-8"?>
<!-- Generator: Adobe Illustrator 27.3.1, SVG Export Plug-In . SVG Version: 6.00 Build 0)  -->
<svg version="1.1" id="Design" xmlns="http://www.w3.org/2000/svg" xmlns:xlink="http://www.w3.org/1999/xlink" x="0px" y="0px"
	 viewBox="0 0 68.3 68.3" style="enable-background:new 0 0 68.3 68.3;" xml:space="preserve">
<style type="text/css">
	.st0{fill:#B3B3B3;stroke:#F5F5F5;stroke-width:0.75;stroke-miterlimit:10;}
</style>
<g>
	<g>
		<g>
			<path class="st0" d="M51.9,40.8v12.6c0,0.2-0.2,0.5-0.5,0.5h-6.6c-0.2,0-0.5-0.2-0.5-0.5V41.5c0-3.2-1.1-5.2-3.8-5.2
				c-2.1,0-3.4,1.3-4,2.7c-0.2,0.5-0.2,1.2-0.2,2v12.3c0,0.2-0.2,0.5-0.5,0.5h-6.5c-0.2,0-0.5-0.2-0.5-0.5c0-3.2,0.1-18.3,0-22
				c0-0.2,0.2-0.5,0.5-0.5h6.5c0.2,0,0.5,0.2,0.5,0.5v2.7c0,0,0,0,0,0.1l0,0v-0.1c1.1-1.5,2.9-3.8,6.8-3.8
				C48.2,30.4,51.9,33.7,51.9,40.8L51.9,40.8z M17.3,54h6.5c0.2,0,0.5-0.2,0.5-0.5v-22c0-0.2-0.2-0.5-0.5-0.5h-6.5
				c-0.2,0-0.5,0.2-0.5,0.5v22C16.6,53.7,17,54,17.3,54z"/>
		</g>
	</g>
	<g>
		<ellipse class="st0" cx="20.3" cy="23.9" rx="4.1" ry="4.1"/>
	</g>
</g>
</svg>
