<?xml version="1.0" encoding="utf-8"?>
<!-- Generator: Adobe Illustrator 27.3.1, SVG Export Plug-In . SVG Version: 6.00 Build 0)  -->
<svg version="1.1" id="Design" xmlns="http://www.w3.org/2000/svg" xmlns:xlink="http://www.w3.org/1999/xlink" x="0px" y="0px"
	 viewBox="0 0 68.3 68.3" style="enable-background:new 0 0 68.3 68.3;" xml:space="preserve">
<style type="text/css">
	.st0{fill:#B3B3B3;stroke:#F5F5F5;stroke-width:0.75;stroke-miterlimit:10;}
</style>
<g>
	<g>
		<g>
			<path class="st0" d="M58.4,42.2v17.2c0,0.3-0.3,0.7-0.7,0.7h-9c-0.3,0-0.7-0.3-0.7-0.7V43.2c0-4.4-1.5-7.1-5.2-7.1
				c-2.9,0-4.6,1.8-5.5,3.7c-0.3,0.7-0.3,1.6-0.3,2.7v16.8c0,0.3-0.3,0.7-0.7,0.7h-8.9c-0.3,0-0.7-0.3-0.7-0.7c0-4.4,0.1-25,0-30
				c0-0.3,0.3-0.7,0.7-0.7h8.9c0.3,0,0.7,0.3,0.7,0.7v3.7c0,0,0,0,0,0.1l0,0v-0.1c1.5-2,4-5.2,9.3-5.2C53.4,28,58.4,32.5,58.4,42.2
				L58.4,42.2z M11.2,60.2h8.9c0.3,0,0.7-0.3,0.7-0.7v-30c0-0.3-0.3-0.7-0.7-0.7h-8.9c-0.3,0-0.7,0.3-0.7,0.7v30
				C10.2,59.8,10.8,60.2,11.2,60.2z"/>
		</g>
	</g>
	<g>
		<ellipse class="st0" cx="15.3" cy="19.2" rx="5.6" ry="5.6"/>
	</g>
</g>
</svg>
