<?xml version="1.0" encoding="utf-8"?>
<!-- Generator: Adobe Illustrator 27.3.1, SVG Export Plug-In . SVG Version: 6.00 Build 0)  -->
<svg version="1.1" id="Design" xmlns="http://www.w3.org/2000/svg" xmlns:xlink="http://www.w3.org/1999/xlink" x="0px" y="0px"
	 viewBox="0 0 110 105.7" style="enable-background:new 0 0 110 105.7;" xml:space="preserve">
<style type="text/css">
	.st0{fill:#333033;}
</style>
<g>
	<g>
		<path class="st0" d="M106.7,63.7v36.7c0,0.9-0.7,1.6-1.6,1.6h-19c-0.9,0-1.6-0.7-1.6-1.6V66.3c0-9-3.2-15.1-11.3-15.1
			c-6.1,0-9.8,4.1-11.4,8.1c-0.6,1.4-0.7,3.4-0.7,5.4v35.7c0,0.9-0.7,1.6-1.6,1.6H40.6c-0.9,0-1.6-0.7-1.6-1.6
			c0-9.1,0.2-53.2,0-63.6c0-0.9,0.7-1.7,1.6-1.7h18.9c0.9,0,1.6,0.7,1.6,1.6v7.8c0,0.1-0.1,0.1-0.1,0.2h0.1v-0.2c3-4.5,8.2-11,20-11
			C95.8,33.6,106.7,43.2,106.7,63.7L106.7,63.7z M6,102h18.9c0.9,0,1.6-0.7,1.6-1.6V36.8c0-0.9-0.7-1.6-1.6-1.6H6
			c-0.9,0-1.6,0.7-1.6,1.6v63.6C4.3,101.3,5.1,102,6,102z"/>
	</g>
</g>
<g>
	<ellipse class="st0" cx="14.8" cy="14.8" rx="11.9" ry="11.9"/>
</g>
</svg>
