<?xml version="1.0" encoding="utf-8"?>
<!-- Generator: Adobe Illustrator 27.3.1, SVG Export Plug-In . SVG Version: 6.00 Build 0)  -->
<svg version="1.1" id="Design" xmlns="http://www.w3.org/2000/svg" xmlns:xlink="http://www.w3.org/1999/xlink" x="0px" y="0px"
	 viewBox="0 0 68.3 68.3" style="enable-background:new 0 0 68.3 68.3;" xml:space="preserve">
<style type="text/css">
	.st0{fill:#B3B3B3;stroke:#F5F5F5;stroke-width:0.75;stroke-miterlimit:10;}
</style>
<g>
	<g>
		<g>
			<path class="st0" d="M51.9,37.2v9.2c0,0.2-0.2,0.4-0.4,0.4h-4.8c-0.2,0-0.4-0.2-0.4-0.4v-8.6c0-2.3-0.8-3.8-2.8-3.8
				c-1.5,0-2.5,1-2.9,2c-0.2,0.4-0.2,0.9-0.2,1.4v9c0,0.2-0.2,0.4-0.4,0.4h-4.7c-0.2,0-0.4-0.2-0.4-0.4c0-2.3,0.1-13.4,0-16
				c0-0.2,0.2-0.4,0.4-0.4h4.7c0.2,0,0.4,0.2,0.4,0.4v2c0,0,0,0,0,0.1h0v-0.1c0.8-1.1,2.1-2.8,5-2.8C49.2,29.6,51.9,32,51.9,37.2
				L51.9,37.2z M26.6,46.8h4.7c0.2,0,0.4-0.2,0.4-0.4v-16c0-0.2-0.2-0.4-0.4-0.4h-4.7c-0.2,0-0.4,0.2-0.4,0.4v16
				C26.2,46.6,26.4,46.8,26.6,46.8z"/>
		</g>
	</g>
	<g>
		<ellipse class="st0" cx="28.8" cy="24.9" rx="3" ry="3"/>
	</g>
</g>
</svg>
