<?xml version="1.0" encoding="utf-8"?>
<!-- Generator: Adobe Illustrator 27.3.1, SVG Export Plug-In . SVG Version: 6.00 Build 0)  -->
<svg version="1.1" id="Design" xmlns="http://www.w3.org/2000/svg" xmlns:xlink="http://www.w3.org/1999/xlink" x="0px" y="0px"
	 viewBox="0 0 800 800" style="enable-background:new 0 0 800 800;" xml:space="preserve">
<style type="text/css">
	.st0{fill:#D4D4D4;stroke:#F5F5F5;stroke-width:0.25;stroke-miterlimit:10;}
</style>
<path class="st0" d="M442.6,369.2h-75.4c-6.8,0-12.4,5.6-12.4,12.4v47.5c0,6.8,5.6,12.4,12.4,12.4h75.4c6.8,0,12.4-5.6,12.4-12.4
	v-47.5C455,374.8,449.4,369.2,442.6,369.2z M450.1,381.6v47.5c0,1.1-0.2,2.1-0.7,3.1l-30.6-26.8l30.6-26.8
	C449.8,379.5,450.1,380.5,450.1,381.6z M442.6,374.1c1.1,0,2.2,0.2,3.1,0.7l-38.5,33.7c-1.3,1.2-3.3,1.2-4.7,0l-38.5-33.7
	c1-0.4,2-0.7,3.1-0.7H442.6z M360.4,432.2c-0.4-0.9-0.7-2-0.7-3.1v-47.5c0-1.1,0.2-2.1,0.7-3.1l30.6,26.8L360.4,432.2z M367.2,436.5
	c-1.1,0-2.2-0.2-3.1-0.7l30.9-27.1l4.2,3.7c1.6,1.4,3.7,2.2,5.8,2.2c2.1,0,4.1-0.7,5.8-2.2l4.2-3.7l30.9,27.1c-1,0.4-2,0.7-3.1,0.7
	H367.2z"/>
</svg>
