<?xml version="1.0" encoding="utf-8"?>
<!-- Generator: Adobe Illustrator 27.3.1, SVG Export Plug-In . SVG Version: 6.00 Build 0)  -->
<svg version="1.1" id="Design" xmlns="http://www.w3.org/2000/svg" xmlns:xlink="http://www.w3.org/1999/xlink" x="0px" y="0px"
	 viewBox="0 0 800 800" style="enable-background:new 0 0 800 800;" xml:space="preserve">
<style type="text/css">
	.st0{fill:#D4D4D4;stroke:#F5F5F5;stroke-width:0.25;stroke-miterlimit:10;}
</style>
<path class="st0" d="M438.5,366.4h-75.4c-6.8,0-12.4,5.6-12.4,12.4v47.5c0,6.8,5.6,12.4,12.4,12.4h75.4c6.8,0,12.4-5.6,12.4-12.4
	v-47.5C450.9,372,445.4,366.4,438.5,366.4z M446,378.8v47.5c0,1.1-0.2,2.1-0.7,3.1l-30.6-26.8l30.6-26.8
	C445.8,376.7,446,377.7,446,378.8z M438.5,371.3c1.1,0,2.2,0.2,3.1,0.7l-38.5,33.7c-1.3,1.2-3.3,1.2-4.7,0L360,372
	c1-0.4,2-0.7,3.1-0.7H438.5z M356.4,429.3c-0.4-0.9-0.7-2-0.7-3.1v-47.5c0-1.1,0.2-2.1,0.7-3.1l30.6,26.8L356.4,429.3z M363.2,433.7
	c-1.1,0-2.2-0.2-3.1-0.7l30.9-27.1l4.2,3.7c1.6,1.4,3.7,2.2,5.8,2.2c2.1,0,4.1-0.7,5.8-2.2l4.2-3.7l30.9,27.1c-1,0.4-2,0.7-3.1,0.7
	H363.2z"/>
</svg>
