<?xml version="1.0" encoding="utf-8"?>
<!-- Generator: Adobe Illustrator 27.3.1, SVG Export Plug-In . SVG Version: 6.00 Build 0)  -->
<svg version="1.1" id="Design" xmlns="http://www.w3.org/2000/svg" xmlns:xlink="http://www.w3.org/1999/xlink" x="0px" y="0px"
	 viewBox="0 0 193.1 193.1" style="enable-background:new 0 0 193.1 193.1;" xml:space="preserve">
<style type="text/css">
	.st0{fill:#B3B3B3;}
</style>
<g>
	<g>
		<g>
			<path class="st0" d="M132.9,88.9c-29.6,0-29.6,29.5-29.6,29.6c0,0-2,29.5,29.6,29.5c0,0,23.8,1.3,26.2-17.4
				c0.2-1.7-1.1-3.1-2.8-3.1h-8.3c-1.2,0-2.3,0.8-2.6,1.9c-0.8,2.4-3.3,6.4-12.1,6.4c0,0-11.4,0.8-13.3-10.2
				c-0.3-1.7,1.1-3.2,2.8-3.2h34.3c1.4,0,2.8-1.2,2.8-2.6C160.2,111.9,158.8,88.9,132.9,88.9z M121.7,112.1c-1.1,0-1.9-1.1-1.5-2.1
				c1.1-3.4,4.3-9.8,13-9.8c9,0,11.1,6.7,11.6,10c0.1,1-0.7,1.9-1.7,1.9H121.7L121.7,112.1z M86.3,105.2c-1-0.3-1.1-1.7-0.2-2.1
				c3.3-1.7,7.2-5.3,7.2-13.3c0-13.8-9.6-20.6-21.8-20.6H33.4c-1.1,0-2,0.9-2,2v73.1c0,1.1,0.9,2,2,2h38.1c0,0,24.5,0.8,24.5-22.8
				C96,123.7,96.7,108.7,86.3,105.2z M49,84.5c0-0.8,0.7-1.4,1.4-1.4h21c0,0,5.4,0,5.4,8s-3.2,9.2-6.8,9.2H50.4
				c-0.8,0-1.4-0.7-1.4-1.4C49,98.9,49,84.5,49,84.5z M70.3,132.7H50.5c-0.8,0-1.4-0.7-1.4-1.4v-17.7c0-0.8,0.7-1.4,1.4-1.4h21
				c0,0,8.1-0.1,8.1,10.6C79.6,131.7,73.5,132.6,70.3,132.7z M116.3,72.4V79c0,0.8,0.7,1.4,1.4,1.4h28.9c0.8,0,1.4-0.7,1.4-1.4v-6.6
				c0-0.8-0.7-1.4-1.4-1.4h-28.9C117,71,116.3,71.6,116.3,72.4z"/>
		</g>
	</g>
</g>
</svg>
